# xmcd
#
# Track frame offsets:
#	150
#	11170
#	27380
#	41157
#	53917
#	68082
#	80175
#	100165
#	116310
#	129550
#	142897
#	158025
#	172117
#	188835
#	206530
#	215745
#	225807
#
# Disc length: 3225 seconds
#
# Revision: 0
# Processed by: cddbd v1.5.1PL0 Copyright (c) Steve Scherf et al.
# Submitted via: dBpowerAMP V4.0
#
DISCID=eb0c9711
DTITLE=Various Artist - Country Favourites (Various Artists)
DYEAR=1900
DGENRE=Country
TTITLE0=On The Road Again - Willie Nelson
TTITLE1=The Devil Went Down To Georgia - Charlie Daniels Band 
TTITLE2=Hywayman - J Cash, W Jennings. K Kristofferson, W Nelson
TTITLE3=North to Alaska - Johnny Horton
TTITLE4=Riders In The Sky - Frankie Laine
TTITLE5=Stand By Your Man - Tammy Wynettw
TTITLE6=After All This Time - Rodney Crowell
TTITLE7=Sentimental Ol' You - Charlie McClain
TTITLE8=Behind Closed Doors - Charlie Rich
TTITLE9=D.I.V.O.R.C.E - Tammy Wynette
TTITLE10=Somebody Lied - Ricky Van Shelton
TTITLE11=I'm Gonna Take A Heartbreak - Alan Caswell
TTITLE12=A Boy Named Sue  - Johny Cash
TTITLE13=Yellow Roses  - Dolly Parton
TTITLE14=Rawhide  - Frankie Laine
TTITLE15=Honky Tonk Man  - Johnny Horton
TTITLE16=Blue Skies  - Willie Nelson
EXTD=Country Favourites  (Various Artists)
EXTT0=
EXTT1=
EXTT2=
EXTT3=
EXTT4=
EXTT5=
EXTT6=
EXTT7=
EXTT8=
EXTT9=
EXTT10=
EXTT11=
EXTT12=
EXTT13=
EXTT14=
EXTT15=
EXTT16=
PLAYORDER=
